<svg xmlns="http://www.w3.org/2000/svg" xmlns:xlink="http://www.w3.org/1999/xlink" version="1.0" x="0px" y="0px" viewBox="0 0 100 125" enable-background="new 0 0 100 100" xml:space="preserve"><path d="M21.6845512,78.4374847C15.884428,72.6373596,8.9601145,70.1581802,6.218452,72.8998413  c-0.5998325,0.5998306-0.9503541,1.4003983-1.0699515,2.3456573L5.0419111,95.1502991l20.0447159-0.2081985  c0.8542824-0.1415176,1.5811806-0.4834061,2.1346035-1.0379562C29.9636574,91.1617203,27.4846344,84.2375717,21.6845512,78.4374847z  "/><path d="M81.4032669,5.3106647L60.8264542,5.1746697L8.1051798,57.8959427c0,0,9.6629019-5.7300911,16.8061829,3.9066238  L81.4032669,5.3106647z"/><path d="M94.9059143,18.8133163l0.135994,20.5768127L42.3206367,92.1114044c0,0,5.7300911-9.6629028-3.9066238-16.8061829  L94.9059143,18.8133163z"/><text x="0" y="115" fill="#000000" font-size="5px" font-weight="bold" font-family="'Helvetica Neue', Helvetica, Arial-Unicode, Arial, Sans-serif">Created by Alex Tai</text><text x="0" y="120" fill="#000000" font-size="5px" font-weight="bold" font-family="'Helvetica Neue', Helvetica, Arial-Unicode, Arial, Sans-serif">from the Noun Project</text></svg>