<svg xmlns="http://www.w3.org/2000/svg" xmlns:xlink="http://www.w3.org/1999/xlink" version="1.1" x="0px" y="0px" viewBox="0 0 100 125" enable-background="new 0 0 100 100" xml:space="preserve"><g><path fill="#000000" d="M54.3,8.4c-9.5,0-17.5,6.9-19.7,16.1H74C71.8,15.3,63.8,8.4,54.3,8.4z"/><path fill="#000000" d="M54.3,50.9c11.2,0,20.3-9.5,20.3-21.2c0-0.5,0-1-0.1-1.5H34.1c0,0.5-0.1,1-0.1,1.5   C34.1,41.4,43.1,50.9,54.3,50.9z"/><path fill="#000000" d="M95,77.5C93,62,76.4,55,68.6,52.6L45.4,91.2c2.8,0.2,5.9,0.4,9.1,0.4l0-0.1l0,0.1c22.2,0,33.7-6,38.3-9.2   C94.4,81.2,95.2,79.4,95,77.5z"/><path fill="#000000" d="M51,62.6l3.7,6.1l10.3-17.1c0,0,0,0-0.1,0l-0.2,0.1c-5.3,4.1-12.4,4.6-18.1,1.5c1.9,2.2,3.6,4.9,4.4,8.2   l0.1,0.5l0,0.5C51,62.4,51,62.5,51,62.6z"/><path fill="#000000" d="M26.4,76.3c-1.1-3.2-4.1-5.1-7.3-5.1c-0.9,0-1.7,0.1-2.6,0.5c-4,1.4-6.1,5.9-4.7,9.9   c1.1,3.2,4.1,5.1,7.3,5.1c0.9,0,1.7-0.1,2.6-0.5C25.7,84.8,27.8,80.4,26.4,76.3z"/><path fill="#000000" d="M15,66.3c0.8,0.9,1.5,1.7,2.3,2.5c0.6-0.1,1.2-0.2,1.9-0.2h0c4.4,0,8.3,2.8,9.7,6.9   c0.7,1.9,0.8,3.8,0.4,5.7c7.5-1.5,8.7-6.9,8.7-6.9c6.5-3.9,8.8-8.1,9.6-10.4l0-0.1c0.4-1.1,0.4-1.7,0.4-1.7   C46,54.3,37.4,49.7,37.4,49.7c-0.8-2.1-5.3-5.6-5.3-5.6c-0.6,0-1.1-0.1-1.7-0.1c-6.7,0-13.8,2.9-13.8,2.9l4.9,5.6   c-2,1.4-6.5,6.6-6.5,6.6c-4.3-6.3-8.8-6.6-9.6-6.6c-0.1,0-0.1,0-0.1,0c-0.9,7.4,5.4,10.2,5.4,10.2c-6.1,2.8-5.4,10.6-5.4,10.6   C10.8,72.6,15,66.3,15,66.3z M35.8,58.8c1.4,0,2.5,1.1,2.5,2.5c0,1.4-1.1,2.5-2.5,2.5c-1.4,0-2.5-1.1-2.5-2.5   C33.3,59.9,34.4,58.8,35.8,58.8z"/><path fill="#000000" d="M49.5,67.1c-1.4,2.6-4.1,6-9,9.2c-1.1,2.5-4.2,7.3-12.7,8.2c-0.6,1-1.4,1.8-2.3,2.5c4,1.5,9.3,2.9,15.9,3.7   l11.2-18.6L49.5,67.1z"/></g><text x="0" y="115" fill="#000000" font-size="5px" font-weight="bold" font-family="'Helvetica Neue', Helvetica, Arial-Unicode, Arial, Sans-serif">Created by parkjisun</text><text x="0" y="120" fill="#000000" font-size="5px" font-weight="bold" font-family="'Helvetica Neue', Helvetica, Arial-Unicode, Arial, Sans-serif">from the Noun Project</text></svg>