<svg xmlns="http://www.w3.org/2000/svg" xmlns:xlink="http://www.w3.org/1999/xlink" version="1.1" x="0px" y="0px" viewBox="0 0 100 125" enable-background="new 0 0 100 100" xml:space="preserve"><path d="M50,5C25.147,5,5,25.147,5,50c0,24.854,20.147,45,45,45c24.854,0,45-20.146,45-45C95,25.147,74.854,5,50,5z M78.816,40.702  l-30.79,32.163l-0.004-0.004c-1.293,1.351-3.111,2.197-5.129,2.197c-2.064,0-3.917-0.887-5.215-2.293l-0.006,0.006L21.095,54.818  l0.006-0.006c-1.17-1.266-1.89-2.953-1.89-4.813c0-3.924,3.181-7.105,7.105-7.105c2.064,0,3.917,0.886,5.215,2.292l0.006-0.005  l11.451,12.4l25.563-26.704l0.004,0.004c1.293-1.351,3.111-2.197,5.129-2.197c3.924,0,7.105,3.181,7.105,7.105  c0,1.906-0.755,3.633-1.977,4.909L78.816,40.702z"/><text x="0" y="115" fill="#000000" font-size="5px" font-weight="bold" font-family="'Helvetica Neue', Helvetica, Arial-Unicode, Arial, Sans-serif">Created by David</text><text x="0" y="120" fill="#000000" font-size="5px" font-weight="bold" font-family="'Helvetica Neue', Helvetica, Arial-Unicode, Arial, Sans-serif">from the Noun Project</text></svg>