<svg xmlns="http://www.w3.org/2000/svg" xmlns:xlink="http://www.w3.org/1999/xlink" version="1.1" x="0px" y="0px" viewBox="0 0 100 125" enable-background="new 0 0 100 100" xml:space="preserve"><g><path fill="#000000" d="M85.37,22.235H14.629L9.538,46.19H6.732v3.461h2.763l5.091,28.114h70.829l5.091-28.114h2.764V46.19h-2.807   L85.37,22.235z M17.433,25.696h65.134l4.356,20.493H59.154l-0.437,1.083c-0.694,1.722-1.889,3.197-3.402,4.238   c-1.514,1.04-3.336,1.647-5.315,1.648c-1.978-0.001-3.8-0.607-5.315-1.648c-1.513-1.04-2.708-2.515-3.403-4.238l-0.437-1.083   H13.077L17.433,25.696z M82.523,74.304H17.476l-4.464-24.653h25.565c0.978,1.893,2.404,3.513,4.147,4.712   c2.067,1.423,4.582,2.258,7.276,2.257c2.694,0.001,5.209-0.834,7.276-2.257c1.743-1.199,3.169-2.819,4.147-4.712h25.565   L82.523,74.304z"/></g><text x="0" y="115" fill="#000000" font-size="5px" font-weight="bold" font-family="'Helvetica Neue', Helvetica, Arial-Unicode, Arial, Sans-serif">Created by Pumpkin Juice</text><text x="0" y="120" fill="#000000" font-size="5px" font-weight="bold" font-family="'Helvetica Neue', Helvetica, Arial-Unicode, Arial, Sans-serif">from the Noun Project</text></svg>