<svg xmlns:dc="http://purl.org/dc/elements/1.1/" xmlns:cc="http://creativecommons.org/ns#" xmlns:rdf="http://www.w3.org/1999/02/22-rdf-syntax-ns#" xmlns:svg="http://www.w3.org/2000/svg" xmlns="http://www.w3.org/2000/svg" xmlns:sodipodi="http://sodipodi.sourceforge.net/DTD/sodipodi-0.dtd" xmlns:inkscape="http://www.inkscape.org/namespaces/inkscape" version="1.1" x="0px" y="0px" viewBox="0 0 100 125"><g transform="translate(0,-952.36218)"><path style="font-size:medium;font-style:normal;font-variant:normal;font-weight:normal;font-stretch:normal;text-indent:0;text-align:start;text-decoration:none;line-height:normal;letter-spacing:normal;word-spacing:normal;text-transform:none;direction:ltr;block-progression:tb;writing-mode:lr-tb;text-anchor:start;baseline-shift:baseline;opacity:1;color:#000000;fill:#000000;fill-opacity:1;stroke:none;stroke-width:6;marker:none;visibility:visible;display:inline;overflow:visible;enable-background:accumulate;font-family:Sans;-inkscape-font-specification:Sans" d="M 76.65625 5 A 3.0003 3.0003 0 0 0 74.875 5.875 L 29.875 50.875 A 3.0003 3.0003 0 0 0 29.0625 52.375 L 25.0625 71.375 A 3.0003 3.0003 0 0 0 28.625 74.9375 L 47.625 70.9375 A 3.0003 3.0003 0 0 0 49.125 70.09375 L 94.125 25.09375 A 3.0003 3.0003 0 0 0 94.125 20.875 L 79.125 5.875 A 3.0003 3.0003 0 0 0 76.65625 5 z M 77 12.21875 L 87.75 23 L 47 63.75 L 36.25 53 L 77 12.21875 z M 7.6875 15 A 3.0003 3.0003 0 0 0 5 18 L 5 92 A 3.0003 3.0003 0 0 0 8 95 L 82 95 A 3.0003 3.0003 0 0 0 85 92 L 85 48 A 3.0003 3.0003 0 1 0 79 48 L 79 89 L 11 89 L 11 21 L 52 21 A 3.0003 3.0003 0 1 0 52 15 L 8 15 A 3.0003 3.0003 0 0 0 7.6875 15 z M 33.78125 59 L 40.96875 66.1875 L 31.875 68.125 L 33.78125 59 z " transform="translate(0,952.36218)"/></g><text x="0" y="115" fill="#000000" font-size="5px" font-weight="bold" font-family="'Helvetica Neue', Helvetica, Arial-Unicode, Arial, Sans-serif">Created by Icons Bazaar</text><text x="0" y="120" fill="#000000" font-size="5px" font-weight="bold" font-family="'Helvetica Neue', Helvetica, Arial-Unicode, Arial, Sans-serif">from the Noun Project</text></svg>