<svg xmlns="http://www.w3.org/2000/svg" xmlns:xlink="http://www.w3.org/1999/xlink" version="1.1" x="0px" y="0px" viewBox="0 0 100 125" enable-background="new 0 0 100 100" xml:space="preserve"><path fill="#000000" d="M81.2,13.5c-3.5-0.6-11.3,1.6-15,4.3C63.2,19.9,54,22,50,22.7c-1.9-0.5-3.9-0.8-6-0.8  c-7.5,0-14.1,3.7-18.2,9.3l-1.1,0.3l-0.2,0.1C13.2,37.9,7.7,47.2,7.9,55.9c-0.7,13.3,2.7,29.4,36,31c38.6,1.9,49.5-45,49.7-58.7  C93.8,14.4,82.6,13.7,81.2,13.5z M50.4,32.3c0.7,0,1.3,0.6,1.3,1.3c0,0.7-0.6,1.3-1.3,1.3c-0.7,0-1.3-0.6-1.3-1.3  C49.1,32.9,49.7,32.3,50.4,32.3z M47.9,27.5c0.6,0,1.2,0.5,1.2,1.2c0,0.6-0.5,1.2-1.2,1.2c-0.6,0-1.2-0.5-1.2-1.2  C46.8,28,47.3,27.5,47.9,27.5z M45.5,31.2c0.4,0,0.7,0.3,0.7,0.7c0,0.4-0.3,0.7-0.7,0.7c-0.4,0-0.7-0.3-0.7-0.7  C44.8,31.5,45.1,31.2,45.5,31.2z M46.2,34.5c0,0.3-0.2,0.5-0.5,0.5c-0.3,0-0.5-0.2-0.5-0.5c0-0.3,0.2-0.5,0.5-0.5  C45.9,34,46.2,34.2,46.2,34.5z M42.2,27.5c0.6,0,1,0.5,1,1c0,0.6-0.4,1-1,1c-0.6,0-1-0.4-1-1C41.2,28,41.7,27.5,42.2,27.5z   M80.2,32.8c-0.5,1.1-1.1,2.2-1.6,3.4c-6.9,14.5-14.8,31-41.8,33.8C23.6,71.3,13.3,66.6,10.6,58C8,49.8,13.3,40.5,24.1,34  c-1.6,3.1-2.6,6.7-2.6,10.4c0,6.1,2.5,11.7,6.4,15.8c27.9-1.9,34.7-17.3,36.3-25.7c-2.3-4.6-6.1-8.3-10.8-10.5  c4.5-0.9,11.6-3,14.1-4.9c3.2-2.4,10.3-4.3,13.4-3.8c1.4,0.3,2.4,0.9,2.9,1.9C84.7,19.1,84.9,23.3,80.2,32.8z"/><text x="0" y="115" fill="#000000" font-size="5px" font-weight="bold" font-family="'Helvetica Neue', Helvetica, Arial-Unicode, Arial, Sans-serif">Created by Danielle Garbouchian</text><text x="0" y="120" fill="#000000" font-size="5px" font-weight="bold" font-family="'Helvetica Neue', Helvetica, Arial-Unicode, Arial, Sans-serif">from the Noun Project</text></svg>