<svg xmlns="http://www.w3.org/2000/svg" data-name="Layer 1" viewBox="0 0 100 125" x="0px" y="0px"><title>Artboard 16</title><path d="M25.51,60.45a25.79,25.79,0,0,1-.73,11.3A2.3,2.3,0,0,0,28,74.46c4.77-2.41,11.52-6.84,15.13-13.71h4.79A28.68,28.68,0,0,0,76.62,32.08h0A28.68,28.68,0,0,0,47.95,3.4H29.68A28.68,28.68,0,0,0,1,32.08H1A28.68,28.68,0,0,0,25.51,60.45ZM50.36,27.91a4.17,4.17,0,1,1-4.17,4.17A4.18,4.18,0,0,1,50.36,27.91Zm-11.55,0a4.17,4.17,0,1,1-4.17,4.17A4.18,4.18,0,0,1,38.81,27.91Zm-11.55,0a4.17,4.17,0,1,1-4.17,4.17A4.18,4.18,0,0,1,27.27,27.91ZM99,60.26A25.73,25.73,0,0,1,79.87,85a15.81,15.81,0,0,0,.65,4.83A5.25,5.25,0,0,1,73.13,96c-3.8-1.92-8.78-5.19-12.08-10.19H59.34a25.67,25.67,0,0,1-18.73-8.16A3.48,3.48,0,0,1,45.7,73a18.45,18.45,0,0,0,13.64,5.94H63a3.48,3.48,0,0,1,3.08,1.86,20.37,20.37,0,0,0,7,7.23,24.06,24.06,0,0,1,.13-6.37,3.48,3.48,0,0,1,2.93-2.92A18.63,18.63,0,0,0,82.52,44a3.47,3.47,0,1,1,3.4-6.06A25.63,25.63,0,0,1,99,60.26Z"/><text x="0" y="115" fill="#000000" font-size="5px" font-weight="bold" font-family="'Helvetica Neue', Helvetica, Arial-Unicode, Arial, Sans-serif">Created by Gregor Cresnar</text><text x="0" y="120" fill="#000000" font-size="5px" font-weight="bold" font-family="'Helvetica Neue', Helvetica, Arial-Unicode, Arial, Sans-serif">from the Noun Project</text></svg>